<?xml version="1.0" encoding="UTF-8" standalone="no"?>
<svg
   xmlns:dc="http://purl.org/dc/elements/1.1/"
   xmlns:cc="http://creativecommons.org/ns#"
   xmlns:rdf="http://www.w3.org/1999/02/22-rdf-syntax-ns#"
   xmlns:svg="http://www.w3.org/2000/svg"
   xmlns="http://www.w3.org/2000/svg"
   id="svg8"
   version="1.1"
   viewBox="0 0 153.99388 15.712677"
   height="15.712677mm"
   width="153.99388mm">
  <defs
     id="defs2" />
  <metadata
     id="metadata5">
    <rdf:RDF>
      <cc:Work
         rdf:about="">
        <dc:format>image/svg+xml</dc:format>
        <dc:type
           rdf:resource="http://purl.org/dc/dcmitype/StillImage" />
        <dc:title></dc:title>
      </cc:Work>
    </rdf:RDF>
  </metadata>
  <g
     transform="translate(3.2941455e-8,-281.28732)"
     id="layer1">
    <path
       id="path815"
       d="m 0.14168396,281.28734 -0.12608983,0.002 c 1.058e-5,7.1e-4 0.0098822,0.0227 0.0025823,0.0651 -0.03416829,0.19915 -0.03783806,0.84615 0.15037859,1.73633 0.22755489,1.07622 0.74089947,2.52905 1.84278328,3.96255 1.1057254,1.43851 2.7983999,2.84844 5.350576,3.81786 2.5483502,0.96798 5.9180417,1.48313 10.3476897,1.17667 1.417535,-0.0987 2.85341,-0.20657 4.301546,-0.3204 8.724045,-0.68573 17.88101,-1.54185 26.353947,-1.79834 4.937257,-0.14945 9.628528,-0.0947 13.849799,0.31471 4.222819,0.4095 7.961077,1.17267 11.001912,2.43241 0.803262,0.29984 1.423408,0.58707 1.905828,0.88005 0.48068,0.29193 0.828228,0.59172 1.080038,0.91829 0.1417,0.18378 0.254725,0.3783 0.344164,0.58756 0.0702,0.16428 0.121047,0.33857 0.157097,0.52297 0.0823,0.42091 0.08785,0.88621 0.08785,1.4149 h 0.410311 c 0,-0.52869 0.0056,-0.99399 0.08785,-1.4149 0.03605,-0.1844 0.0869,-0.35869 0.157097,-0.52297 0.08944,-0.20926 0.202467,-0.40378 0.344167,-0.58756 0.251809,-0.32657 0.598839,-0.62636 1.079519,-0.91829 0.48242,-0.29298 1.103085,-0.58021 1.906344,-0.88005 3.040837,-1.25974 6.779093,-2.02291 11.001912,-2.43241 4.221271,-0.40938 8.912025,-0.46416 13.849285,-0.31471 8.47293,0.25649 17.63042,1.11261 26.35446,1.79834 1.44814,0.11383 2.88401,0.2217 4.30155,0.3204 4.42964,0.30646 7.79933,-0.20869 10.34768,-1.17667 2.55218,-0.96942 4.24486,-2.37935 5.35058,-3.81786 1.10188,-1.4335 1.61523,-2.88633 1.84278,-3.96255 0.18822,-0.89018 0.18455,-1.53718 0.15038,-1.73633 -0.007,-0.0424 0.003,-0.0644 0.003,-0.0651 l -0.12661,-0.002 c 0,-7e-4 0.01,0.0206 -0.002,0.0605 -0.0548,0.18822 -0.15924,0.80325 -0.44907,1.6247 -0.35304,1.00063 -0.97308,2.28804 -2.09341,3.5171 -1.11523,1.22346 -2.73041,2.39512 -5.10305,3.18327 -2.37558,0.78911 -5.54867,1.20666 -9.80973,0.8754 -1.41271,-0.10897 -2.84457,-0.22324 -4.2907,-0.33952 -8.69688,-0.69925 -17.91446,-1.5072 -26.44076,-1.67276 -4.97393,-0.0966 -9.723774,0.0251 -14.009995,0.51573 -4.284742,0.49051 -8.120018,1.35147 -11.25461,2.74092 -0.81188,0.39299 -1.447835,0.78087 -1.941484,1.1777 -0.495149,0.39804 -0.844428,0.803 -1.086239,1.22783 -0.135149,0.23743 -0.23514,0.47848 -0.309541,0.72554 -0.02341,0.0778 -0.04406,0.15628 -0.06408,0.23513 -0.02002,-0.0789 -0.04067,-0.15732 -0.06408,-0.23513 -0.0744,-0.24706 -0.174389,-0.48811 -0.309541,-0.72554 -0.241811,-0.42483 -0.591087,-0.82979 -1.086239,-1.22783 -0.493649,-0.39683 -1.129602,-0.78471 -1.941484,-1.1777 -3.134592,-1.38945 -6.969865,-2.25041 -11.25461,-2.74092 -4.286221,-0.49068 -9.036587,-0.61231 -14.010513,-0.51573 -8.526303,0.16556 -17.74336,0.97351 -26.440246,1.67276 -1.446128,0.11628 -2.877986,0.23055 -4.290695,0.33952 -4.261064,0.33126 -7.434154,-0.0863 -9.8097362,-0.8754 -2.3726351,-0.78815 -3.9878184,-1.95981 -5.1030477,-3.18327 -1.1203332,-1.22906 -1.74037366,-2.51647 -2.09341249,-3.5171 -0.28982193,-0.82145 -0.39425032,-1.43648 -0.44906934,-1.6247 -0.0116179,-0.0399 -0.002582,-0.0612 -0.002582,-0.0605 z"
       style="fill:#ffffff;fill-rule:nonzero;stroke:none;stroke-width:1.5;stroke-linecap:round;stroke-linejoin:round;stroke-miterlimit:4;stroke-dasharray:none;stroke-opacity:1" />
  </g>
</svg>
